<svg width="80" height="14" viewBox="0 0 80 14" fill="none" xmlns="http://www.w3.org/2000/svg" class="sc-gsnTZi bLAwsY"><path d="M0 9.58971H2.73602C2.73602 10.6535 3.72032 11.5585 5.32189 11.5585C6.94014 11.5585 7.94112 10.844 7.94112 9.84373C7.94112 8.95462 7.19038 8.49419 6.13935 8.27191L4.23749 7.84324C1.61825 7.19228 0.417076 5.90624 0.417076 3.92162C0.417076 1.74647 2.48577 0 5.4053 0C7.80766 0 10.3935 1.20665 10.3935 4.001H7.57409C7.57409 3.03251 6.52306 2.36568 5.47203 2.36568C4.23749 2.36568 3.40334 3.08014 3.40334 4.001C3.40334 4.82661 4.22081 5.28704 5.08832 5.49344L7.22375 5.98563C10.2434 6.70009 10.894 8.47832 10.894 9.90725C10.894 12.4476 8.24141 13.94 5.35525 13.94C2.73602 13.94 0.0500491 12.3682 0 9.58971ZM12.212 6.92237C12.212 2.68321 15.5819 0 19.5859 0C23.5898 0 26.9764 2.68321 26.9764 6.92237C26.9764 11.1615 23.5731 13.94 19.5692 13.94C15.5653 13.94 12.212 11.1615 12.212 6.92237ZM24.0235 6.92237C24.0235 4.3503 21.9715 2.6197 19.5692 2.6197C17.1668 2.6197 15.1482 4.33442 15.1482 6.92237C15.1482 9.52619 17.1668 11.2727 19.5692 11.2727C21.9715 11.2727 24.0235 9.52619 24.0235 6.92237ZM38.1207 0.492188L37.6035 3.15952C36.9529 2.87374 36.2522 2.71497 35.5348 2.69909C32.9823 2.69909 31.7811 5.23941 31.7811 8.85936V13.6701H28.7949V0.301667H31.7811V3.30242C32.4985 0.952622 33.9166 0.015878 35.7183 0.015878C36.6693 9.65297e-07 37.6702 0.222279 38.1207 0.492188ZM53.3189 0.285789V13.6542H50.366V11.6537C49.4318 13.1779 47.4131 13.94 45.528 13.94C41.7075 13.94 38.5545 11.1933 38.5545 6.95412C38.5545 2.68321 41.7075 0 45.4946 0C47.4799 0 49.4318 0.74622 50.366 2.25453V0.269911H53.3189V0.285789ZM50.3493 6.92237C50.3493 4.23916 48.0304 2.65146 45.8616 2.65146C43.4593 2.65146 41.5073 4.39793 41.5073 6.92237C41.5073 9.41506 43.4593 11.2727 45.8616 11.2727C48.2473 11.2727 50.3493 9.62146 50.3493 6.92237ZM64.947 0.492188L64.4298 3.15952C63.7792 2.87374 63.0785 2.71497 62.3611 2.69909C59.8086 2.69909 58.6074 5.23941 58.6074 8.85936V13.6701H55.6379V0.301667H58.6241V3.30242C59.3415 0.952622 60.7595 0.015878 62.5613 0.015878C63.4956 9.65297e-07 64.4965 0.222279 64.947 0.492188ZM79.5446 8.09726H68.3503C68.734 10.2724 70.419 11.3362 72.7046 11.3362C74.3228 11.3362 75.8577 10.6852 76.6418 9.44681L78.9941 10.5582C77.7596 12.7969 75.2404 13.94 72.5544 13.94C68.5005 13.94 65.314 11.1615 65.314 6.92237C65.314 2.68321 68.5672 0 72.5544 0C76.5417 0 79.5947 2.68322 79.5947 6.89062C79.5947 7.27167 79.5613 7.66859 79.5446 8.09726ZM76.6585 5.84273C76.3915 3.74697 74.7566 2.60383 72.6045 2.60383C70.4524 2.60383 68.8174 3.63583 68.4004 5.84273H76.6585Z" fill="white"></path></svg>